<svg xmlns="http://www.w3.org/2000/svg" shape-rendering="geometricPrecision" text-rendering="geometricPrecision" image-rendering="optimizeQuality" fill-rule="evenodd" clip-rule="evenodd" viewBox="0 0 480 511.6"><g fill-rule="nonzero"><path d="M422.14 24.94C422.14 11.23 410.9 0 397.19 0H24.94C11.23 0 0 11.24 0 24.94v461.71c0 13.71 11.23 24.95 24.94 24.95h132.93a50.163 50.163 0 0 1-3.46-6.77c-1.44-3.49-2.53-7.15-3.18-10.92H20.79c-1.37 0-2.61-1.21-2.61-2.61V22.6c0-1.41 1.24-2.61 2.61-2.61h381.23c1.4 0 2.62 1.27 2.62 2.61v322.5l17.5-.01V24.94zM63.93 61.64h13.84v57.91H63.93V61.64zm25.48 0h12.88l16.75 31.98V61.64h13.04v57.91h-13.04l-16.66-31.8v31.8H89.41V61.64zm49.12 0h14.41l10.07 41.69 9.91-41.69h14l-16.58 57.91h-14.95l-16.86-57.91zm56.74 6.93c8.12-10.52 25.95-10.69 34.15-.15 7.14 9.17 7.69 27.82 3.4 38.38-1.75 4.33-4.3 7.71-7.62 10.11-6.57 4.78-18.13 4.79-24.93.5-3.29-2.08-5.97-5.38-8.02-9.88-4.87-10.69-4.26-29.54 3.02-38.96zm10.2 34.7c3.31 5.03 10.43 5.19 13.76.08 3.3-5.07 3.38-20.23-.11-25.39-3.42-5.07-10.26-5.04-13.63.04-3.43 5.2-3.44 20.08-.02 25.27zm39.61-41.63h13.85v57.91h-13.85V61.64zm55.11 34.22 12.1 4.73c-.81 4.39-2.1 8.08-3.85 11.02-1.74 2.93-3.91 5.17-6.5 6.67-2.59 1.49-5.89 2.25-9.89 2.25-4.86 0-8.84-.91-11.91-2.74-3.08-1.82-5.74-5.06-7.97-9.65-2.23-4.59-3.35-10.51-3.35-17.68 0-9.56 1.96-16.94 5.89-22.08 3.93-5.13 9.5-7.71 16.69-7.71 5.63 0 10.07 1.48 13.28 4.42 3.21 2.95 5.61 7.48 7.17 13.61l-12.16 3.49c-.42-1.76-.88-3.04-1.34-3.84-.77-1.36-1.73-2.42-2.84-3.15-1.12-.73-2.37-1.1-3.75-1.1-3.14 0-5.53 1.64-7.2 4.88-1.24 2.42-1.9 6.21-1.9 11.38 0 6.41.75 10.8 2.26 13.18 1.5 2.37 3.62 3.57 6.34 3.57 2.64 0 4.64-.97 5.99-2.9 1.34-1.91 2.33-4.7 2.94-8.35zm20.41-34.22h36.92v12.38h-23.07v9.21h21.39v11.81h-21.39v11.42h23.76v13.09H320.6V61.64zM107.38 208.02c-4.45 0-8.07-3.61-8.07-8.07 0-4.45 3.62-8.07 8.07-8.07H268c4.46 0 8.07 3.62 8.07 8.07 0 4.46-3.61 8.07-8.07 8.07H107.38zm0 132.17c-4.45 0-8.07-3.62-8.07-8.07 0-4.46 3.62-8.07 8.07-8.07h196.69c4.46 0 8.07 3.61 8.07 8.07 0 4.45-3.61 8.07-8.07 8.07H107.38zm0-48.95c-4.45 0-8.07-3.61-8.07-8.06 0-4.46 3.62-8.07 8.07-8.07H268c4.46 0 8.07 3.61 8.07 8.07 0 4.45-3.61 8.06-8.07 8.06H107.38zm236.73-40.83H78.02v160.12h72.53v16.14H69.96c-4.46 0-8.07-3.62-8.07-8.07V159.29c0-4.45 3.61-8.07 8.07-8.07h282.22c4.46 0 8.07 3.62 8.07 8.07v185.84l-16.14.01v-94.73zM78.02 234.27h266.09v-66.91H78.02v66.91z"/><path fill="#D30000" d="m200.76 369.52 253.18-.2c7.12 0 13.6 2.91 18.33 7.62l.05.04c4.69 4.71 7.6 11.19 7.61 18.29l.07 90.15c0 7.11-2.91 13.6-7.61 18.32l-.05.05c-4.71 4.69-11.18 7.61-18.29 7.62l-253.19.19c-7.11 0-13.6-2.91-18.31-7.61l-.05-.05c-4.7-4.71-7.62-11.18-7.63-18.29l-.06-90.15c0-7.11 2.91-13.6 7.61-18.32l.05-.04c4.71-4.7 11.18-7.62 18.29-7.62z"/><path fill="#fff" d="M237.56 469.29h-12.41c-1.01 0-1.74-.24-2.21-.69-.45-.45-.67-1.18-.67-2.2v-51.88c0-1.01.22-1.74.67-2.2.47-.46 1.2-.68 2.21-.68h24.5c7.25 0 12.23 1.44 14.89 4.32 2.67 2.89 4.01 6.65 4.01 11.29v10.25c0 4.64-1.34 8.41-4.01 11.29-2.66 2.88-7.64 4.32-14.89 4.32h-9.2v13.29c0 1.02-.23 1.75-.69 2.2-.45.45-1.19.69-2.2.69zm2.72-42.68v12.09h7.21c1.54 0 2.56-.4 3.04-1.2.48-.8.72-1.7.72-2.72v-4.24c0-1.02-.24-1.92-.72-2.73-.48-.8-1.5-1.2-3.04-1.2h-7.21zm56.69 1.84-3.76 12.17h12.56l-3.76-12.17c-.21-.48-.44-.82-.68-1.04a1.24 1.24 0 0 0-.84-.32h-2c-.32 0-.6.11-.84.32-.24.22-.47.56-.68 1.04zm-4.57 37.95c0 1.02-.22 1.75-.67 2.2-.46.45-1.2.69-2.21.69h-11.77c-1.01 0-1.74-.24-2.21-.69-.45-.45-.67-1.18-.67-2.2v-21.13c0-1.6.25-3.45.76-5.53s1.29-4.51 2.36-7.28l6.97-18.18c.32-.9.81-1.58 1.48-2 .67-.43 1.53-.64 2.6-.64h21.54c1.01 0 1.86.21 2.52.64.67.42 1.17 1.1 1.48 2l6.97 18.18c1.06 2.77 1.85 5.2 2.36 7.28.5 2.08.76 3.93.76 5.53v21.13c0 1.02-.23 1.75-.68 2.2-.46.45-1.19.69-2.2.69H309.7c-1.07 0-1.86-.24-2.37-.69-.5-.45-.75-1.18-.75-2.2v-11.21H292.4v11.21zm43.72 2.89c-1.01 0-1.75-.24-2.2-.69-.45-.45-.68-1.18-.68-2.2v-9.52c0-1.02.23-1.75.68-2.2.45-.46 1.19-.69 2.2-.69h7.93v-26.9h-7.93c-1.01 0-1.75-.22-2.2-.68-.45-.46-.68-1.19-.68-2.2v-9.69c0-1.01.23-1.74.68-2.2.45-.46 1.19-.68 2.2-.68h34.11c1.02 0 1.75.22 2.2.68.45.46.68 1.19.68 2.2v9.69c0 1.01-.23 1.74-.68 2.2-.45.46-1.18.68-2.2.68h-7.76v26.9h7.76c1.02 0 1.75.23 2.2.69.45.45.68 1.18.68 2.2v9.52c0 1.02-.23 1.75-.68 2.2-.45.45-1.18.69-2.2.69h-34.11zm76.7 0h-26.97c-1.02 0-1.75-.24-2.21-.69-.45-.45-.67-1.18-.67-2.2v-51.88c0-1.01.22-1.74.67-2.2.46-.46 1.19-.68 2.21-.68h26.97c6.68 0 11.63 1.33 14.86 4 3.23 2.67 4.85 6.78 4.85 12.33v24.99c0 5.54-1.62 9.65-4.85 12.32-3.23 2.68-8.18 4.01-14.86 4.01zm-11.68-42.36v27.23h9.53c1.28 0 2.23-.33 2.84-.96.62-.65.92-1.64.92-2.97v-19.45c0-1.34-.3-2.31-.92-2.93-.61-.61-1.56-.92-2.84-.92h-9.53z"/></g></svg>